HIERARCHY
ROOT Hips
{
	OFFSET	0.00	0.00	0.00
	CHANNELS 6 Xposition Yposition Zposition Zrotation Xrotation Yrotation
	JOINT LeftUpLeg
	{
		OFFSET	 0.126116	-0.014019	-0.065224
		CHANNELS 3 Zrotation Xrotation Yrotation
		JOINT LeftLeg
		{
			OFFSET	 0.000000	 0.000000	 0.569914
			CHANNELS 3 Zrotation Xrotation Yrotation
			JOINT LeftFoot
			{
				OFFSET	 0.000000	 0.000000	 0.544423
				CHANNELS 3 Zrotation Xrotation Yrotation
				JOINT LeftToeBase
				{
					OFFSET	 0.000000	 0.000000	 0.207117
					CHANNELS 3 Zrotation Xrotation Yrotation
					End Site
					{
						OFFSET	 0.000000	 0.000000	 0.207117
					}
				}
			}
		}
	}
	JOINT RightUpLeg
	{
		OFFSET	-0.124023	-0.008373	-0.065224
		CHANNELS 3 Zrotation Xrotation Yrotation
		JOINT RightLeg
		{
			OFFSET	 0.000000	 0.000000	 0.570047
			CHANNELS 3 Zrotation Xrotation Yrotation
			JOINT RightFoot
			{
				OFFSET	 0.000000	 0.000000	 0.544354
				CHANNELS 3 Zrotation Xrotation Yrotation
				JOINT RightToeBase
				{
					OFFSET	 0.000000	 0.000000	 0.207540
					CHANNELS 3 Zrotation Xrotation Yrotation
					End Site
					{
						OFFSET	 0.000000	 0.000000	 0.207540
					}
				}
			}
		}
	}
	JOINT Spine
	{
		OFFSET	 0.000184	-0.007763	 0.117403
		CHANNELS 3 Zrotation Xrotation Yrotation
		JOINT Spine1
		{
			OFFSET	 0.000000	 0.000000	 0.137269
			CHANNELS 3 Zrotation Xrotation Yrotation
			JOINT Spine2
			{
				OFFSET	 0.000000	 0.000000	 0.156879
				CHANNELS 3 Zrotation Xrotation Yrotation
				JOINT LeftShoulder
				{
					OFFSET	 0.080501	-0.002496	 0.160144
					CHANNELS 3 Zrotation Xrotation Yrotation
					JOINT LeftArm
					{
						OFFSET	 0.000000	 0.000000	 0.164363
						CHANNELS 3 Zrotation Xrotation Yrotation
						JOINT LeftForeArm
						{
							OFFSET	 0.000000	 0.000000	 0.364576
							CHANNELS 3 Zrotation Xrotation Yrotation
							JOINT LeftHand
							{
								OFFSET	 0.000000	 0.000000	 0.360812
								CHANNELS 3 Zrotation Xrotation Yrotation
								JOINT LeftHandIndex1
								{
									OFFSET	 0.000000	 0.000000	 0.086006
									CHANNELS 3 Zrotation Xrotation Yrotation
									JOINT LeftHandIndex2
									{
										OFFSET	 0.000000	 0.000000	 0.047236
										CHANNELS 3 Zrotation Xrotation Yrotation
										JOINT LeftHandIndex3
										{
											OFFSET	-0.004284	-0.000551	 0.038166
											CHANNELS 3 Zrotation Xrotation Yrotation
											End Site
											{
												OFFSET	-0.004284	-0.000551	 0.038166
											}
										}
									}
								}
							}
						}
					}
				}
				JOINT Neck
				{
					OFFSET	 0.000000	 0.000000	 0.176489
					CHANNELS 3 Zrotation Xrotation Yrotation
					JOINT Head
					{
						OFFSET	 0.000000	-0.001747	 0.077940
						CHANNELS 3 Zrotation Xrotation Yrotation
						End Site
						{
							OFFSET	 0.000000	-0.001747	 0.077940
						}
					}
				}
				JOINT RightShoulder
				{
					OFFSET	-0.080363	 0.000306	 0.159706
					CHANNELS 3 Zrotation Xrotation Yrotation
					JOINT RightArm
					{
						OFFSET	 0.000000	 0.000000	 0.164196
						CHANNELS 3 Zrotation Xrotation Yrotation
						JOINT RightForeArm
						{
							OFFSET	 0.000000	 0.000000	 0.365611
							CHANNELS 3 Zrotation Xrotation Yrotation
							JOINT RightHand
							{
								OFFSET	 0.000000	 0.000000	 0.360648
								CHANNELS 3 Zrotation Xrotation Yrotation
								JOINT RightHandIndex1
								{
									OFFSET	 0.000000	 0.000000	 0.069977
									CHANNELS 3 Zrotation Xrotation Yrotation
									JOINT RightHandIndex2
									{
										OFFSET	 0.000000	 0.000000	 0.052305
										CHANNELS 3 Zrotation Xrotation Yrotation
										JOINT RightHandIndex3
										{
											OFFSET	 0.009002	-0.000782	 0.042196
											CHANNELS 3 Zrotation Xrotation Yrotation
											End Site
											{
												OFFSET	 0.009002	-0.000782	 0.042196
											}
										}
									}
								}
							}
						}
					}
				}
			}
		}
	}
}
MOTION
Frames:    4
Frame Time: 0.03333334
 0.002288	 0.022890	 1.215238	 0.001869	 0.736486	 0.483341	 4.121768	-1.740600	 179.840900	 3.149054	-11.594560	 1.749952	 4.341489	 71.407150	 1.245834	-2.385833	 28.452760	 0.000004	-4.123327	-2.151783	-179.865500	-3.142116	-11.963990	-1.790687	-4.347235	 71.430570	-1.263901	 2.384659	 28.388700	-0.000001	-0.005923	 3.783161	 0.089848	 0.000000	 0.000000	 0.000000	 0.000000	 0.000000	 0.000000	-91.229260	 83.958310	 178.242600	 12.080020	 0.580816	-1.590062	-5.132527	-0.912958	-0.284914	-17.874510	-14.360520	-4.430512	-2.434338	 5.182776	 7.472631	-5.213937	-0.202400	 3.566957	-1.378229	 35.397820	-2.634230	 0.411357	-3.779086	-0.073053	-0.595966	 0.008129	-0.142397	 87.726900	 87.419040	-176.798800	-12.547750	 3.325960	 3.698915	 5.871922	-0.462907	 0.434563	 18.871350	-15.301690	 8.815188	 3.236365	 2.840245	-9.892056	 5.070519	-0.690904	-9.399550	-2.350882	 35.473990	 5.254307
 0.011240	 0.037065	 1.215709	 179.322200	 0.247079	 0.262625	-12.495210	-10.630220	-175.983700	-1.334908	-40.288570	-6.756917	-176.132400	 84.529080	 161.944100	-2.229188	 45.089840	-0.421604	 3.004844	-9.772655	 178.800200	 6.525035	-39.837860	 9.483847	-159.345500	 84.058780	 168.944400	 2.347874	 34.535220	 0.139378	-6.268352	 5.705080	 1.741571	-1.091591	 9.836718	-2.914337	 7.388048	-24.030940	 5.505325	-91.229360	 83.958340	 178.242700	 56.206940	 70.730850	-51.410100	 5.902957	-10.603290	-26.122060	 20.105940	-21.174550	-9.418323	-11.196270	 9.074705	-23.797650	-5.213937	-0.202400	 3.566957	-1.378229	 35.397820	-2.634230	-1.214869	 7.241289	 5.052955	-2.401573	-19.720100	-6.746336	 87.726970	 87.418890	-176.798900	-94.707240	 62.927130	 80.860300	-4.199162	-14.362480	 31.542360	-31.233700	-18.459250	 19.992040	-1.109711	 25.096580	-62.610340	 5.070519	-0.690904	-9.399550	-2.350882	 35.473990	 5.254307
 0.011808	 0.038712	 1.216253	 179.562700	 0.435314	 0.543651	-12.952050	-10.007650	-176.954900	-1.552401	-40.952950	-7.001001	-171.170100	 82.970630	 157.139900	-2.228594	 45.127060	-0.422752	 3.142768	-8.933671	 179.520400	 6.600718	-39.912510	 9.548846	-169.991100	 83.216440	 179.281900	 2.351151	 34.100930	 0.129040	-6.759978	 5.520179	 1.332477	-1.104423	 11.269530	-2.620180	 7.167294	-24.943440	 5.263010	-91.229200	 83.958340	 178.242500	 37.328350	 64.594710	-45.688470	 8.109823	-0.157780	-1.550522	 19.485670	-22.477830	-9.706614	-11.327000	 8.903659	-24.120580	-5.213937	-0.202400	 3.566957	-1.378229	 35.397820	-2.634230	-1.267465	 7.185338	 5.169647	-2.500840	-19.774780	-6.938994	 87.726900	 87.419040	-176.798900	-70.771350	 61.093940	 72.503240	-8.061018	-0.185227	 1.547398	-30.726520	-19.677250	 20.370240	-0.932600	 25.290200	-62.284040	 5.070519	-0.690904	-9.399550	-2.350882	 35.473990	 5.254307
 0.011984	 0.038855	 1.216478	 179.625300	 0.478694	 0.602063	-12.978680	-9.944654	-177.106900	-1.559085	-41.014390	-7.039551	-170.665400	 82.788440	 156.674700	-2.227690	 45.183540	-0.424498	 3.143879	-8.835846	 179.576600	 6.602264	-39.885320	 9.544554	-170.906500	 83.123830	-179.830000	 2.351774	 34.017730	 0.127071	-6.876754	 5.466636	 1.245121	-1.096634	 11.454460	-2.545999	 7.088979	-25.091650	 5.181489	-91.229310	 83.958240	 178.242600	 36.494150	 64.168060	-44.800670	 8.060975	-0.152923	-1.589333	 19.333140	-22.779410	-9.784472	-11.383300	 8.799490	-24.234730	-5.213937	-0.202400	 3.566957	-1.378229	 35.397820	-2.634230	-1.282900	 7.170801	 5.197942	-2.527570	-19.794870	-6.987862	 87.726890	 87.419040	-176.798800	-69.421930	 60.840390	 70.915000	-8.075565	-0.180036	 1.584824	-30.632970	-19.976460	 20.467850	-0.922946	 25.281060	-62.174560	 5.070519	-0.690904	-9.399550	-2.350882	 35.473990	 5.254307
